<svg style="enable-background:new 0 0 512 512;" version="1.1" viewBox="0 0 512 512" xml:space="preserve" xmlns="http://www.w3.org/2000/svg" xmlns:xlink="http://www.w3.org/1999/xlink"><style type="text/css">
<![CDATA[
	.st0{fill:#7A4229;}
	.st1{fill:#AA4035;}
	.st2{fill:#48A1AF;}
	.st3{fill:#496C72;}
	.st4{fill:#AF1010;}
	.st5{fill:#AF1C1C;}
	.st6{fill:#AF4B19;}
	.st7{fill:#AF5417;}
	.st8{fill:#AF9604;}
	.st9{fill:#E29C6D;}
	.st10{fill:#141414;}
	.st11{fill:#E2A379;}
	.st12{fill:#E2A84B;}
	.st13{fill:#E4E9ED;}
	.st14{fill:#4A4A54;}
	.st15{fill:#E57428;}
	.st16{fill:#4ABC96;}
	.st17{fill:#E5A173;}
	.st18{fill:#E5AA17;}
	.st19{fill:#172023;}
	.st20{fill:#E5BA9C;}
	.st21{fill:#E5C615;}
	.st22{fill:#E6E7E8;}
	.st23{fill:#4C230C;}
	.st24{fill:#191919;}
	.st25{fill:#E8EAEA;}
	.st26{fill:#B2B1B1;}
	.st27{fill:#844A2C;}
	.st28{fill:#86B4D1;}
	.st29{fill:#1B2A30;}
	.st30{fill:#EA4949;}
	.st31{fill:#87786E;}
	.st32{fill:#1C1C1A;}
	.st33{fill:#B74E39;}
	.st34{fill:#B7B7B6;}
	.st35{fill:#B7B7B7;}
	.st36{fill:#1D1D1E;}
	.st37{fill:#1D2D33;}
	.st38{fill:#1E1D1D;}
	.st39{fill:#1F2323;}
	.st40{fill:#51250D;}
	.st41{fill:#516E77;}
	.st42{fill:#EFC76C;}
	.st43{fill:#556877;}
	.st44{fill:#BA1C1C;}
	.st45{fill:#BA6B56;}
	.st46{fill:#BAAB27;}
	.st47{fill:#8C502F;}
	.st48{fill:#595A5C;}
	.st49{fill:#8E502E;}
	.st50{fill:#202121;}
	.st51{fill:#BF8A3D;}
	.st52{fill:#BFC0C1;}
	.st53{fill:#231F20;}
	.st54{fill:#F2DE7C;}
	.st55{fill:#F2EEEB;}
	.st56{fill:#F2F8F9;}
	.st57{fill:#25383F;}
	.st58{fill:#F3FAFF;}
	.st59{fill:#F4B21E;}
	.st60{fill:#F4B382;}
	.st61{fill:#263A44;}
	.st62{fill:#272728;}
	.st63{fill:#F5F6F7;}
	.st64{fill:#282828;}
	.st65{fill:#283030;}
	.st66{fill:#5D8A94;}
	.st67{fill:#5E7F8C;}
	.st68{fill:#F9C5A2;}
	.st69{fill:#C14D71;}
	.st70{fill:#C16952;}
	.st71{fill:#C18D17;}
	.st72{fill:#C1C1C1;}
	.st73{fill:#931616;}
	.st74{fill:#932412;}
	.st75{fill:#C46E57;}
	.st76{fill:#2A3F49;}
	.st77{fill:#2A7175;}
	.st78{fill:#C64040;}
	.st79{fill:#979797;}
	.st80{fill:#C6C6C6;}
	.st81{fill:#2C7A82;}
	.st82{fill:#C7C8C9;}
	.st83{fill:#2E3535;}
	.st84{fill:#C98A5F;}
	.st85{fill:#C9B81F;}
	.st86{fill:#2F3035;}
	.st87{fill:#FFFFFF;}
	.st88{fill:#631F04;}
	.st89{fill:none;}
	.st90{fill:#66676B;}
	.st91{fill:#66B9CC;}
	.st92{fill:#9B1818;}
	.st93{fill:#9B5C32;}
	.st94{fill:#9B7334;}
	.st95{fill:#9B9B9A;}
	.st96{fill:#CC785E;}
	.st97{fill:#CC936D;}
	.st98{fill:#30302E;}
	.st99{fill:#30A018;}
	.st100{fill:#CE8699;}
	.st101{fill:#CE8757;}
	.st102{fill:#9F9FA0;}
	.st103{fill:#CEB70D;}
	.st104{fill:#318589;}
	.st105{fill:#334D5C;}
	.st106{fill:#3366A3;}
	.st107{fill:#348264;}
	.st108{fill:#6B6B6B;}
	.st109{fill:#6F6E3A;}
	.st110{fill:#010101;}
	.st111{fill:#D19743;}
	.st112{fill:#D1D1D1;}
	.st113{fill:#D39266;}
	.st114{fill:#D3C624;}
	.st115{fill:#D4D6D8;}
	.st116{fill:#3A1D12;}
	.st117{fill:#3A5560;}
	.st118{fill:#3A8589;}
	.st119{fill:#D61E1E;}
	.st120{fill:#D6D6D6;}
	.st121{fill:#D6E7F2;}
	.st122{fill:#3C3C3F;}
	.st123{fill:#D7E4F4;}
	.st124{fill:#D89364;}
	.st125{fill:#D8D8D8;}
	.st126{fill:#D9DADB;}
	.st127{fill:#3F1C0A;}
	.st128{fill:#3F9199;}
	.st129{fill:#A0490E;}
	.st130{fill:#A3D5E0;}
	.st131{fill:#751414;}
	.st132{fill:#A5B6B9;}
	.st133{fill:#779FA5;}
	.st134{fill:#0D1416;}
	.st135{fill:#DBDBDB;}
	.st136{fill:#DBDDDD;}
	.st137{fill:#0F0F0F;}
	.st138{fill:#DEDFE0;}
	.st139{fill:#424131;}
]]>
</style><g><g><g><path class="st105" d="M256.002,7.924c-137.011,0-248.081,111.06-248.081,248.082c0,137.001,111.07,248.07,248.081,248.07     c137.007,0,248.077-111.069,248.077-248.07C504.079,118.983,393.009,7.924,256.002,7.924z"/></g></g><g><g><g><path class="st55" d="M383.77,110.85H128.229c-30.773,0-55.721,24.948-55.721,55.722v256.379      c45.376,49.84,110.781,81.125,183.494,81.125c72.711,0,138.115-31.285,183.49-81.125v-256.38      C439.492,135.798,414.545,110.85,383.77,110.85z"/></g></g><g><g><path class="st116" d="M175.625,116C154.125,131,156,194,156,194c-9.982,17.968-10.084,51.341-5.774,87.877      c0,0-16.226,29.123-0.47,69.237c15.755,40.114,35.491,90.018,35.491,90.018S217.333,439.5,256,439.5V155.501L175.625,116z"/></g></g><g><g><path class="st116" d="M361.066,283.006c4.391-36.807,4.555-70.597-4.879-89.006c-0.854-1.667,1.521-66-19.812-78      l-80.188,39.501V439.5c38.666,0,70.752,1.632,70.752,1.632s22.799-54.857,35.43-90.995S361.066,283.006,361.066,283.006z"/></g></g><g><g><path class="st87" d="M255.612,341.321c-75.026,0-177.59,15.455-215.757,36.491c42.569,75.37,123.409,126.265,216.146,126.265      c92.726,0,173.557-50.883,216.13-126.24C433.822,356.788,330.668,341.321,255.612,341.321z"/></g></g><g><g><g><g><path class="st126" d="M205.107,420.07c-2.176,0-3.94,1.764-3.94,3.94v73.983c2.61,0.589,5.238,1.135,7.88,1.641V424.01        C209.047,421.834,207.282,420.07,205.107,420.07z"/></g></g><g><g><path class="st126" d="M225.465,420.07c-2.178,0-3.941,1.764-3.941,3.94v77.686c2.613,0.364,5.242,0.683,7.881,0.964v-78.65        C229.404,421.834,227.639,420.07,225.465,420.07z"/></g></g><g><g><path class="st126" d="M245.822,420.07c-2.178,0-3.941,1.764-3.941,3.94v79.664c2.617,0.146,5.244,0.251,7.881,0.316v-79.98        C249.762,421.834,247.996,420.07,245.822,420.07z"/></g></g><g><g><path class="st126" d="M266.178,420.07c-2.176,0-3.939,1.764-3.939,3.94v79.98c2.637-0.065,5.264-0.169,7.88-0.316V424.01        C270.118,421.834,268.354,420.07,266.178,420.07z"/></g></g><g><g><path class="st126" d="M286.535,420.07c-2.176,0-3.939,1.764-3.939,3.94v78.651c2.639-0.281,5.268-0.601,7.881-0.964V424.01        C290.477,421.834,288.711,420.07,286.535,420.07z"/></g></g><g><g><path class="st126" d="M306.893,420.07c-2.177,0-3.939,1.764-3.939,3.94v75.625c2.642-0.506,5.27-1.052,7.88-1.641V424.01        C310.833,421.834,309.068,420.07,306.893,420.07z"/></g></g></g><g><g><g><circle class="st52" cx="350.334" cy="448.334" r="27"/></g></g><g><g><circle class="st87" cx="350.334" cy="448.334" r="22.787"/></g></g><g><g><g><path class="st4" d="M350.285,435.796c-0.747,0-1.354,0.607-1.354,1.356v11.185c0,0.75,0.607,1.356,1.354,1.356         c0.75,0,1.356-0.606,1.356-1.356v-11.185C351.642,436.403,351.035,435.796,350.285,435.796z"/></g></g><g><g><path class="st106" d="M360.539,457.292l-9.588-9.586c-0.354-0.353-0.925-0.353-1.277,0c-0.353,0.353-0.353,0.925,0,1.278         l9.588,9.586c0.176,0.177,0.406,0.265,0.637,0.265c0.233,0,0.465-0.088,0.641-0.265         C360.892,458.217,360.892,457.646,360.539,457.292z"/></g></g><g><g><path class="st99" d="M350.624,447.999c-0.166-0.187-0.451-0.202-0.637-0.036l-14.086,12.578         c-0.187,0.167-0.203,0.452-0.036,0.638c0.089,0.1,0.212,0.151,0.336,0.151c0.108,0,0.215-0.038,0.301-0.115l14.086-12.578         C350.774,448.47,350.79,448.185,350.624,447.999z"/></g></g><g><g><path class="st102" d="M350.285,444.533c-2.077,0-3.765,1.686-3.765,3.767s1.688,3.767,3.765,3.767         c2.082,0,3.769-1.686,3.769-3.767S352.367,444.533,350.285,444.533z"/></g></g></g></g></g><g><g><g><path class="st85" d="M140.657,350.61c-6.399,0.984-12.689,2.041-18.843,3.156c0.766,2.273,1.188,4.704,1.188,7.234       c0,12.519-10.15,22.667-22.666,22.667c-11.641,0-21.226-8.774-22.516-20.068c-6.433,1.781-12.451,3.641-17.943,5.574       l6.365,29.522l81.016-17.467L140.657,350.61z"/></g></g><g><g><path class="st106" d="M116.489,354.754c-11.872,2.255-23.126,4.746-33.429,7.437c0.615,9.015,8.104,16.143,17.275,16.143       c9.571,0,17.332-7.76,17.332-17.333C117.668,358.795,117.24,356.694,116.489,354.754z"/></g></g><g><g><path class="st87" d="M121.814,353.766c-1.787,0.324-3.562,0.653-5.325,0.988c0.751,1.94,1.179,4.041,1.179,6.246       c0,9.573-7.761,17.333-17.332,17.333c-9.172,0-16.66-7.127-17.275-16.143c-1.773,0.464-3.523,0.932-5.24,1.407       c1.29,11.294,10.875,20.068,22.516,20.068c12.516,0,22.666-10.148,22.666-22.667       C123.002,358.47,122.58,356.039,121.814,353.766z"/></g></g></g><g><g><g><path class="st106" d="M371.326,350.687l-6.584,30.541l81.016,17.467l6.354-29.473       C431.041,361.826,402.359,355.462,371.326,350.687z"/></g></g><g><g><path class="st4" d="M371.326,350.687l-3.149,14.609l81.016,17.467l2.919-13.541       C431.041,361.826,402.359,355.462,371.326,350.687z"/></g></g><g><g><rect class="st87" height="22.282" transform="matrix(0.2064 -0.9785 0.9785 0.2064 -41.9113 696.506)" width="17.987" x="399.438" y="362.95"/></g></g><g><g><polygon class="st85" points="411.228,372.397 409.885,367.379 406.717,371.497 401.529,371.224 404.471,375.506        402.605,380.356 407.586,378.886 411.623,382.156 411.764,376.963 416.122,374.136      "/></g></g></g><g><g><path class="st135" d="M256.002,308.144c-55.422,0-100.352,8.999-100.352,20.102c0,1.282,0,21.718,0,23      c0,11.102,44.93,20.102,100.352,20.102c55.418,0,100.347-9,100.347-20.102c0-1.282,0-21.718,0-23      C356.349,317.143,311.42,308.144,256.002,308.144z"/></g></g><g><g><path class="st87" d="M256.002,308.144c-55.422,0-100.352,8.999-100.352,20.102c0,11.102,44.93,20.102,100.352,20.102      c55.418,0,100.347-9,100.347-20.102C356.349,317.143,311.42,308.144,256.002,308.144z"/></g></g><g><g><path class="st76" d="M256.002,311.749c-46.945,0-85.003,7.385-85.003,16.497c0,9.11,38.058,16.496,85.003,16.496      c46.941,0,84.998-7.385,84.998-16.496C341,319.134,302.943,311.749,256.002,311.749z"/></g></g><g><g><g><g><path class="st11" d="M217.11,290.039c2.931,8.834,4.493,16.499,5.192,23.06c10.334-0.867,21.724-1.35,33.699-1.35        c11.973,0,23.361,0.483,33.695,1.35c0.699-6.561,2.262-14.226,5.192-23.06H217.11z"/></g></g><g><g><path class="st11" d="M289.697,313.099c-10.334-0.867-21.723-1.35-33.695-1.35c-11.976,0-23.365,0.483-33.699,1.35        c1.976,18.536-3.004,28.175-4.029,29.928c11.371,1.095,24.174,1.714,37.729,1.714c13.552,0,26.354-0.619,37.725-1.714        C292.701,341.274,287.722,331.635,289.697,313.099z"/></g></g></g><g><g><path class="st60" d="M256.002,69.5c-44.048,0-79.755,21.167-79.755,113.596c0,31.266,5.595,55.765,13.972,74.673       c18.432,41.598,50.336,56.136,65.783,56.136c15.445,0,47.348-14.538,65.779-56.136c8.377-18.908,13.971-43.407,13.971-74.673       C335.752,90.667,300.046,69.5,256.002,69.5z"/></g></g><g><g><g><path class="st60" d="M177.686,185.883c-7.623,1.304-13.422,4.587-9.121,29.746c4.303,25.159,9.645,26.329,17.268,25.025        L177.686,185.883z"/></g></g><g><g><path class="st60" d="M334.412,185.883l-8.146,54.771c7.625,1.304,12.967,0.134,17.268-25.025        C347.836,190.47,342.035,187.187,334.412,185.883z"/></g></g></g><g><g><path class="st116" d="M256,69.5c-62.881,0-90.666,25.072-90.666,117.5l17.4-7.833c0,0,24.266-47.167,73.266-52.314       l73.304,52.314L346.666,187C346.666,94.572,318.881,69.5,256,69.5z"/></g></g><g><g><path class="st116" d="M256,126.853l-53.727-5.687c-90.703,91.107-35.219,179.188-17.412,207.861       c35.836,57.702-3.645,77.745-3.645,77.745l1.936-0.973c0,0,69.834-13.476,43.682-76.164       C213.838,298.485,151.901,202.292,256,126.853z"/></g></g><g><g><path class="st96" d="M266.432,265.667c-2.971-0.439-10.432,2.5-10.432,2.5s-7.566-2.931-10.561-2.48       c-4.799,0.723-16.105,4.62-16.105,5.98c0,0,14.24,9.583,26.666,9.583s26.666-9.583,26.666-9.583       S271.303,266.387,266.432,265.667z"/></g></g><g><g><path class="st70" d="M262.127,272.332C260.176,272.227,257.666,274,256,274c-1.925,0-4.809-1.753-7.025-1.617       c-13.149,0.81-19.641-0.717-19.641-0.717s14.24,13.458,26.666,13.458s26.666-13.458,26.666-13.458       S275.783,273.065,262.127,272.332z"/></g></g><g><g><g><path class="st116" d="M182.667,191c-0.427-2.699-0.49-5.166-0.419-7.147c0.102-2.851,0.486-4.687,0.486-4.687l-9.375,3.5        c-0.018,1.428-0.025,2.872-0.025,4.333c0,0,1.012-0.325,2.799-0.944c-0.085,0.029-0.175,0.061-0.256,0.088        c1.288,2.19,2.903,5.552,4.457,10.522C180.334,196.667,183.996,199.395,182.667,191z"/></g></g><g><g><path class="st116" d="M338.641,182.653l-9.337-3.486c0,0,0.386,1.845,0.487,4.708c0.07,1.978,0.006,4.436-0.42,7.126        c-1.328,8.394,2.334,5.667,2.334,5.667c1.55-4.96,3.154-8.322,4.432-10.516c1.619,0.557,2.529,0.849,2.529,0.849        C338.666,185.534,338.658,184.085,338.641,182.653z"/></g></g></g></g></g></g></svg>