<svg version="1.1" viewBox="0 0 48 48" fill="#33adff" stroke="#33adff" stroke-width="2" xml:space="preserve" xmlns="http://www.w3.org/2000/svg" xmlns:xlink="http://www.w3.org/1999/xlink"><g><g><polygon points="42.254,47.966 5.744,47.966 5.744,22.953 7.396,22.953 7.396,46.313 40.602,46.313 40.602,22.953 42.254,22.953"/></g><g><polygon points="1.162,24.909 0,23.734 24,0.034 48,23.734 46.838,24.909 24,2.357   "/></g><g><path d="M31.406,47.14h-1.652V28.999c0-1.113-0.906-2.02-2.02-2.02h-7.469c-1.115,0-2.021,0.906-2.021,2.02V47.14h-1.65V28.999    c0-2.023,1.646-3.672,3.672-3.672h7.469c2.025,0,3.672,1.648,3.672,3.672V47.14z"/></g></g></svg>